<?xml version="1.0" standalone="no"?>
<!DOCTYPE svg PUBLIC "-//W3C//DTD SVG 20010904//EN"
 "http://www.w3.org/TR/2001/REC-SVG-20010904/DTD/svg10.dtd">
<svg version="1.0" xmlns="http://www.w3.org/2000/svg"
 width="120.000000pt" height="120.000000pt" viewBox="0 0 120.000000 120.000000"
 preserveAspectRatio="xMidYMid meet">
<metadata>
Created by potrace 1.11, written by Peter Selinger 2001-2013
</metadata>
<g transform="translate(0.000000,120.000000) scale(0.100000,-0.100000)"
fill="#000000" stroke="none">
<path d="M349 1093 c0 -21 -2 -45 -4 -53 -3 -17 -15 -130 -21 -200 -2 -25 -6
-63 -8 -85 -22 -190 -26 -683 -7 -686 3 0 54 -3 114 -5 l107 -4 1 47 c2 102
16 394 24 488 10 118 31 225 45 225 12 0 26 -53 35 -135 19 -158 30 -365 35
-602 0 -22 2 -23 103 -19 56 2 107 4 113 5 24 2 23 494 -1 701 -10 81 -14 117
-21 189 -4 41 -8 83 -9 95 -1 12 -3 33 -4 49 l-1 27 -67 -6 c-84 -8 -287 -8
-370 0 l-63 6 -1 -37z"/>
</g>
</svg>
